<?xml version="1.0" encoding="UTF-8"?>
<svg version="1.1" xmlns="http://www.w3.org/2000/svg" width="512" height="512">
<path d="M0 0 C4.15207052 3.51107664 8.08263692 7.23132515 12 11 C12.64582031 11.57105469 13.29164063 12.14210937 13.95703125 12.73046875 C27.56893256 25.13100647 33.93992313 42.83880313 39 60 C41.77892845 60 43.05449073 58.76696723 45.375 57.25 C58.64154333 49.10522811 74.88042922 46.76620295 90.12890625 49.68359375 C107.79811288 54.05105918 121.1563393 63.71796042 131 79 C136.32588327 88.13767504 139.38366447 99.37855202 139 110 C139.58265625 110.02578125 140.1653125 110.0515625 140.765625 110.078125 C156.72096861 111.1819538 170.13539791 118.40377488 181 130 C192.60412869 145.03569982 195.29883279 160.53321669 194 179 C191.41702389 193.67130432 183.50683078 206.22354368 171.75 215.1875 C157.97889176 224.81592595 144.14719683 227.1518501 127.71582031 227.14526367 C126.50497772 227.14862228 125.29413513 227.1519809 124.04660034 227.15544128 C120.74470145 227.16328123 117.44286547 227.16661698 114.14096165 227.16725707 C112.07174222 227.16797095 110.00252927 227.17011166 107.93331146 227.17275429 C100.69642218 227.18198931 93.45955123 227.18609157 86.22265625 227.18530273 C79.50622224 227.18470273 72.78986875 227.19524404 66.0734551 227.2110464 C60.28291681 227.2241786 54.49240465 227.22948425 48.70185161 227.22884732 C45.25418048 227.22859396 41.80658098 227.23135466 38.35892487 227.24202538 C34.50646893 227.25188125 30.65421742 227.248925 26.80175781 227.24291992 C25.67927643 227.24853943 24.55679504 227.25415894 23.40029907 227.25994873 C4.80097415 227.18670366 -10.34871532 222.10600238 -24.125 209.375 C-30.39881812 202.84614863 -35.4208833 194.6752107 -38 186 C-38.63671631 186.06856201 -39.27343262 186.13712402 -39.92944336 186.20776367 C-73.24521987 189.54441949 -102.54918974 185.54001917 -129.12329102 163.97631836 C-148.97762065 147.35882697 -163.36673769 123.09079286 -166 97 C-166.76220529 81.65372906 -166.74583241 66.71753546 -162 52 C-161.68651611 51.02764404 -161.68651611 51.02764404 -161.36669922 50.03564453 C-156.09593414 34.3654823 -147.53394537 21.67228355 -136 10 C-135.35675781 9.28457031 -134.71351563 8.56914062 -134.05078125 7.83203125 C-100.99792858 -28.0887479 -37.29508004 -29.6259509 0 0 Z " fill="#A6E5FC" transform="translate(318,131)"/>
<path d="M0 0 C4.15207052 3.51107664 8.08263692 7.23132515 12 11 C12.64582031 11.57105469 13.29164063 12.14210937 13.95703125 12.73046875 C25.38286447 23.13948309 32.17131015 38.02809233 36.875 52.4375 C37.10292236 53.12448975 37.33084473 53.81147949 37.56567383 54.51928711 C39.54981525 60.90719688 39.54981525 60.90719688 38 64 C36.21484375 65.8671875 36.21484375 65.8671875 33.9375 67.875 C21.68040482 79.72157046 17.83724692 94.59446577 16 111 C14.91203125 111.14695313 13.8240625 111.29390625 12.703125 111.4453125 C-2.88975233 113.74204826 -16.48909887 119.32276065 -26.546875 132.1171875 C-31.10082679 138.26976992 -34.7525598 144.64925638 -37 152 C-37.22300781 152.70125 -37.44601562 153.4025 -37.67578125 154.125 C-40.36808862 164.08836876 -39.24837954 174.87832174 -38 185 C-66.07196431 191.17348779 -93.13082353 186.61889463 -117.6875 172.25 C-142.64177266 156.24335116 -158.19570287 132.69383457 -165 104 C-168.23031032 87.21465333 -167.24457966 68.26422521 -162 52 C-161.68651611 51.02764404 -161.68651611 51.02764404 -161.36669922 50.03564453 C-156.09593414 34.3654823 -147.53394537 21.67228355 -136 10 C-135.35675781 9.28457031 -134.71351563 8.56914062 -134.05078125 7.83203125 C-100.99792858 -28.0887479 -37.29508004 -29.6259509 0 0 Z " fill="#F8D43C" transform="translate(318,131)"/>
<path d="M0 0 C6.25811616 6.02670672 12.27683092 15.0732683 12.734375 24.01171875 C12.74802051 25.96643823 12.69236572 27.92139403 12.625 29.875 C13.924375 29.9575 15.22375 30.04 16.5625 30.125 C26.66051613 31.28041564 35.53971016 36.74955198 41.875 44.625 C48.19719882 53.68624409 50.59652987 63.46026216 49 74.375 C46.84095315 84.51251139 41.65635652 93.5044518 33.19921875 99.6328125 C25.37119286 104.5505708 18.67546082 106.17563029 9.55957031 106.16552734 C8.67888885 106.17224457 7.7982074 106.17896179 6.89083862 106.18588257 C3.99487581 106.20479621 1.09914564 106.20878359 -1.796875 106.2109375 C-3.8231821 106.21737065 -5.84948827 106.2240994 -7.87579346 106.23110962 C-12.11904044 106.24306627 -16.36220612 106.24679216 -20.60546875 106.24560547 C-26.01996561 106.24540252 -31.43393621 106.2726874 -36.84830856 106.30714989 C-41.0332881 106.32948266 -45.21814235 106.33344103 -49.40317535 106.33238602 C-51.39810242 106.33473304 -53.39303342 106.34350541 -55.38790131 106.35905075 C-70.24956837 106.46401007 -82.09199151 105.6511546 -93.375 94.875 C-101.46845485 86.18537549 -103.98972081 77.13325372 -103.84545898 65.4909668 C-103.43927779 55.15013504 -99.61222062 47.29706123 -92.375 39.875 C-84.79030529 33.7266988 -77.09109166 30.51392666 -67.375 29.875 C-67.436875 28.92625 -67.49875 27.9775 -67.5625 27 C-67.47828511 16.53630021 -62.39362689 8.4344272 -55.5625 0.8671875 C-40.18259406 -13.93597196 -15.97947398 -13.32817112 0 0 Z " fill="#A5E5FC" transform="translate(103.375,382.125)"/>
<path d="M0 0 C9.27794403 3.08723182 14.25169671 11.7922498 18.4375 20.125 C18.7672583 20.78129395 19.0970166 21.43758789 19.43676758 22.11376953 C25.5039854 34.81893903 26.26528542 50.62246767 22.375 64.125 C16.29838439 80.60648726 6.29121152 92.36119076 -9.75 99.875 C-20.58409889 104.45451981 -30.68034608 105.149915 -42.28417969 105.14526367 C-43.49502228 105.14862228 -44.70586487 105.1519809 -45.95339966 105.15544128 C-49.25529855 105.16328123 -52.55713453 105.16661698 -55.85903835 105.16725707 C-57.92825778 105.16797095 -59.99747073 105.17011166 -62.06668854 105.17275429 C-69.30357782 105.18198931 -76.54044877 105.18609157 -83.77734375 105.18530273 C-90.49377776 105.18470273 -97.21013125 105.19524404 -103.9265449 105.2110464 C-109.71708319 105.2241786 -115.50759535 105.22948425 -121.29814839 105.22884732 C-124.74581952 105.22859396 -128.19341902 105.23135466 -131.64107513 105.24202538 C-135.49353107 105.25188125 -139.34578258 105.248925 -143.19824219 105.24291992 C-144.32072357 105.24853943 -145.44320496 105.25415894 -146.59970093 105.25994873 C-165.19902585 105.18670366 -180.34871532 100.10600238 -194.125 87.375 C-199.04482771 82.24432253 -205.66862366 74.38481908 -206.21875 67.10546875 C-206.1465625 66.41066406 -206.074375 65.71585937 -206 65 C-205.21238281 65.39832031 -204.42476563 65.79664063 -203.61328125 66.20703125 C-202.52402344 66.73683594 -201.43476563 67.26664062 -200.3125 67.8125 C-199.25675781 68.33457031 -198.20101563 68.85664063 -197.11328125 69.39453125 C-187.37980581 73.54001886 -177.22763271 74.44654054 -166.76855469 74.41992188 C-164.89009102 74.43262619 -164.89009102 74.43262619 -162.97367859 74.44558716 C-159.5786082 74.46480824 -156.18409085 74.47074637 -152.78900433 74.46883965 C-149.93429104 74.46871877 -147.07962738 74.47733029 -144.22492814 74.48561716 C-137.47787968 74.50476352 -130.73095488 74.50776763 -123.98388672 74.50097656 C-117.07129422 74.4943457 -110.15923664 74.51718151 -103.2467525 74.55429029 C-97.26917333 74.58519123 -91.29176441 74.59632537 -85.31410718 74.59245348 C-81.76281638 74.59040649 -78.21194207 74.59554083 -74.66072845 74.62034607 C-51.27044652 74.77094221 -32.13341792 73.12324751 -14.32421875 56.48828125 C-3.92922957 45.35952812 1.36602214 31.54003149 1.13671875 16.4765625 C0.9201715 10.97007531 0.50291242 5.48713372 0 0 Z " fill="#8DD0E2" transform="translate(488,253)"/>
<path d="M0 0 C9.51628173 3.57068163 16.69332986 10.10915662 24 17 C24.67933594 17.60328125 25.35867188 18.2065625 26.05859375 18.828125 C37.84974468 29.74146389 44.96287484 44.3895661 49.875 59.4375 C50.10292236 60.12448975 50.33084473 60.81147949 50.56567383 61.51928711 C52.54981525 67.90719688 52.54981525 67.90719688 51 71 C49.21484375 72.8671875 49.21484375 72.8671875 46.9375 74.875 C34.68040482 86.72157046 30.83724692 101.59446577 29 118 C27.91203125 118.14695312 26.8240625 118.29390625 25.703125 118.4453125 C10.11024767 120.74204826 -3.48909887 126.32276065 -13.546875 139.1171875 C-18.10082679 145.26976992 -21.7525598 151.64925638 -24 159 C-24.22300781 159.70125 -24.44601562 160.4025 -24.67578125 161.125 C-27.36808862 171.08836876 -26.24837954 181.87832174 -25 192 C-53.07196431 198.17348779 -80.13082353 193.61889463 -104.6875 179.25 C-116.31143442 171.79395274 -127.12598573 162.42925102 -135 151 C-135 150.34 -135 149.68 -135 149 C-133.99453125 149.40412109 -133.99453125 149.40412109 -132.96875 149.81640625 C-129.48483864 151.2053867 -125.998724 152.58633908 -122.5 153.9375 C-121.55253906 154.31551758 -121.55253906 154.31551758 -120.5859375 154.70117188 C-109.60909509 158.90896147 -98.91068732 160.51623344 -87.1875 160.375 C-85.96135986 160.36484863 -84.73521973 160.35469727 -83.47192383 160.34423828 C-55.423363 159.86553691 -30.15720113 148.60499697 -10.5546875 128.51904297 C10.02401805 106.53657572 17.30018616 78.88419397 16.4375 49.4921875 C15.6791684 32.63616117 9.61818821 18.83722843 2 4 C1.33188288 2.66739288 0.66481263 1.33425874 0 0 Z " fill="#EAC322" transform="translate(305,124)"/>
<path d="M0 0 C7.87577485 5.32773004 12.62609693 14.15338304 14.46875 23.3359375 C16.05264603 34.74718846 13.00985726 44.83028081 6.46875 54.19140625 C0.69197741 61.3714986 -6.95955716 66.11813492 -16 68 C-19.02409358 68.27868557 -22.0299146 68.29389154 -25.06542969 68.29052734 C-25.94611115 68.29724457 -26.8267926 68.30396179 -27.73416138 68.31088257 C-30.63012419 68.32979621 -33.52585436 68.33378359 -36.421875 68.3359375 C-38.4481821 68.34237065 -40.47448827 68.3490994 -42.50079346 68.35610962 C-46.74404044 68.36806627 -50.98720612 68.37179216 -55.23046875 68.37060547 C-60.64496561 68.37040252 -66.05893621 68.3976874 -71.47330856 68.43214989 C-75.6582881 68.45448266 -79.84314235 68.45844103 -84.02817535 68.45738602 C-86.02310242 68.45973304 -88.01803342 68.46850541 -90.01290131 68.48405075 C-104.87456837 68.58901007 -116.71699151 67.7761546 -128 57 C-133.59320046 50.9948004 -137.67913757 43.65250519 -138.25 35.375 C-138.12625 34.199375 -138.12625 34.199375 -138 33 C-137.19616127 33.41500511 -137.19616127 33.41500511 -136.37608337 33.83839417 C-124.17002446 39.80562133 -113.69361568 40.73772795 -100.27734375 40.62890625 C-98.40035362 40.62973734 -96.52336359 40.63220573 -94.64637756 40.63621521 C-90.73562397 40.63905484 -86.8254489 40.62455186 -82.91479492 40.59692383 C-77.93665624 40.56282071 -72.95954874 40.56888494 -67.98136044 40.5875864 C-64.11279409 40.59822306 -60.24446207 40.58915886 -56.37591743 40.57420158 C-54.54176088 40.56906968 -52.70757933 40.56943988 -50.87342644 40.57574654 C-36.14224675 40.60740331 -22.40293465 39.47334758 -11 29 C-3.71286361 20.55494999 -1.7072487 10.74562419 0 0 Z " fill="#8DD0E2" transform="translate(138,420)"/>
<path d="M0 0 C2.90717073 2.21863029 3.83981643 3.51944929 5 7 C5.12059347 9.60006819 5.18807427 12.17255076 5.203125 14.7734375 C5.20882507 15.53419586 5.21452515 16.29495422 5.22039795 17.07876587 C5.22983748 18.68758762 5.23637778 20.29642862 5.24023438 21.90527344 C5.24993701 24.35906915 5.2809678 26.81202589 5.3125 29.265625 C5.31903085 30.83072421 5.324281 32.39582939 5.328125 33.9609375 C5.3404718 34.69130219 5.3528186 35.42166687 5.36553955 36.17416382 C5.34619856 40.6252538 4.79103378 43.48861995 2 47 C-1.27013114 48.63506557 -3.09345783 49.18974138 -6.6875 48.4375 C-9.64849394 46.59688215 -10.50712257 45.1600207 -12 42 C-12.28730629 39.19271041 -12.42125634 36.61554709 -12.3984375 33.8125 C-12.40130768 33.03237549 -12.40417786 32.25225098 -12.40713501 31.44848633 C-12.40917003 29.80451732 -12.40367952 28.1605238 -12.39111328 26.51660156 C-12.37505065 24.00790999 -12.39098004 21.50082929 -12.41015625 18.9921875 C-12.40817372 17.39062146 -12.40432983 15.78905642 -12.3984375 14.1875 C-12.40451019 13.44153564 -12.41058289 12.69557129 -12.4168396 11.92700195 C-12.35676769 7.4534038 -11.77232196 4.55317432 -9 1 C-5.90826248 -0.54586876 -3.40570448 -0.29359521 0 0 Z " fill="#EAC321" transform="translate(259,24)"/>
<path d="M0 0 C2.90717073 2.21863029 3.83981643 3.51944929 5 7 C5.10855454 9.52758748 5.16402072 12.02676982 5.16796875 14.5546875 C5.17129715 15.29324982 5.17462555 16.03181213 5.17805481 16.79275513 C5.18311412 18.35450621 5.18546344 19.91626808 5.18530273 21.47802734 C5.18748555 23.85923226 5.20564119 26.239971 5.22460938 28.62109375 C5.2275443 30.14062342 5.22952843 31.66015529 5.23046875 33.1796875 C5.23765427 33.88817841 5.24483978 34.59666931 5.25224304 35.32662964 C5.23397534 39.30863088 4.96053938 42.4947081 3 46 C-0.51001103 48.05302532 -2.68509367 49.23907388 -6.75 48.5 C-9.60718746 46.59520836 -10.52331743 45.1127531 -12 42 C-12.28730629 39.19271041 -12.42125634 36.61554709 -12.3984375 33.8125 C-12.40130768 33.03237549 -12.40417786 32.25225098 -12.40713501 31.44848633 C-12.40917003 29.80451732 -12.40367952 28.1605238 -12.39111328 26.51660156 C-12.37505065 24.00790999 -12.39098004 21.50082929 -12.41015625 18.9921875 C-12.40817372 17.39062146 -12.40432983 15.78905642 -12.3984375 14.1875 C-12.40451019 13.44153564 -12.41058289 12.69557129 -12.4168396 11.92700195 C-12.35676769 7.4534038 -11.77232196 4.55317432 -9 1 C-5.90826248 -0.54586876 -3.40570448 -0.29359521 0 0 Z " fill="#EAC321" transform="translate(259,357)"/>
<path d="M0 0 C0.73619064 -0.00570007 1.47238129 -0.01140015 2.23088074 -0.01727295 C3.78842741 -0.02671256 5.34599395 -0.03325281 6.90356445 -0.03710938 C9.27395961 -0.04679731 11.64348078 -0.07782175 14.01367188 -0.109375 C15.52994279 -0.11590741 17.04621988 -0.12115695 18.5625 -0.125 C19.26582962 -0.1373468 19.96915924 -0.1496936 20.69380188 -0.16241455 C25.35028664 -0.14157469 28.53190225 0.73569331 32.48046875 3.203125 C34.00893536 6.26005822 33.7128932 8.83297047 33.48046875 12.203125 C31.72031744 15.3881607 30.98155959 16.03609472 27.48046875 17.203125 C24.80772571 17.323898 22.16184118 17.3912262 19.48828125 17.40625 C18.31384964 17.41480011 18.31384964 17.41480011 17.11569214 17.42352295 C15.45979154 17.43296345 13.80387224 17.43950316 12.14794922 17.44335938 C9.62173509 17.45306252 7.09633567 17.48409282 4.5703125 17.515625 C2.95964024 17.52215575 1.34896217 17.52740594 -0.26171875 17.53125 C-1.39007645 17.5497702 -1.39007645 17.5497702 -2.54122925 17.56866455 C-7.48700015 17.54777946 -10.95738617 16.76527008 -14.51953125 13.203125 C-15.11016261 5.99742235 -15.11016261 5.99742235 -12.70703125 2.765625 C-8.66204494 -0.12365093 -4.77436596 0.02860221 0 0 Z " fill="#E9C220" transform="translate(79.51953125,205.796875)"/>
<path d="M0 0 C2.21548598 1.77878401 4.0725356 3.46301706 6.01953125 5.49609375 C6.8355909 6.31920799 6.8355909 6.31920799 7.6681366 7.15895081 C9.3949796 8.90706474 11.10338704 10.67206646 12.8125 12.4375 C13.98001677 13.62153136 15.14862591 14.80448664 16.31835938 15.98632812 C25.87961602 25.69985303 25.87961602 25.69985303 26.3125 30.375 C26 34 26 34 24.3125 36.375 C21.61633883 38.26959974 20.31085597 39 17 39 C10.33903263 36.00865173 5.68079505 31.10754911 0.60961914 25.94580078 C-0.81788554 24.49452478 -2.25844143 23.05721851 -3.70117188 21.62109375 C-11.69049057 13.56949121 -11.69049057 13.56949121 -13 10 C-12.68041237 3.92783505 -12.68041237 3.92783505 -10.625 1.125 C-6.93228233 -1.43149685 -4.16711629 -1.18399575 0 0 Z " fill="#EAC220" transform="translate(131,78)"/>
<path d="M0 0 C3.52734375 0.6875 3.52734375 0.6875 6.02734375 2.1875 C8.1022919 5.64574691 8.26539736 8.79993779 7.52734375 12.6875 C6.03050765 15.24011326 4.0648945 17.11252152 1.91015625 19.12109375 C1.33780243 19.68449966 0.76544861 20.24790558 0.17575073 20.8283844 C-1.64740441 22.61357202 -3.49670787 24.36869418 -5.34765625 26.125 C-6.58510199 27.33086998 -7.82080006 28.53853616 -9.0546875 29.74804688 C-19.0652776 39.49984951 -19.0652776 39.49984951 -23.28515625 40.0625 C-26.47265625 39.6875 -26.47265625 39.6875 -29.34765625 37.5625 C-31.47265625 34.6875 -31.47265625 34.6875 -32.22265625 31.875 C-31.08331302 27.03279127 -27.79889185 24.28645825 -24.47265625 20.6875 C-23.70679199 19.85500732 -22.94092773 19.02251465 -22.15185547 18.16479492 C-19.64307756 15.47525137 -17.09425313 12.82914839 -14.53515625 10.1875 C-13.67986328 9.2696875 -12.82457031 8.351875 -11.94335938 7.40625 C-4.81714128 0.10065342 -4.81714128 0.10065342 0 0 Z " fill="#EAC321" transform="translate(149.47265625,312.3125)"/>
<path d="M0 0 C2.4375 2.125 2.4375 2.125 4 5 C3.91779561 10.21532566 2.69488678 12.99747913 -0.94915771 16.73153687 C-1.49702942 17.26098907 -2.04490112 17.79044128 -2.609375 18.3359375 C-3.17319885 18.90075836 -3.73702271 19.46557922 -4.31793213 20.04751587 C-5.5078451 21.23276646 -6.70510492 22.41068183 -7.90917969 23.58154297 C-9.7479824 25.37303432 -11.55855609 27.1898247 -13.3671875 29.01171875 C-14.52967286 30.16305293 -15.69368561 31.3128474 -16.859375 32.4609375 C-17.39914978 33.0025351 -17.93892456 33.54413269 -18.49505615 34.10214233 C-21.5241291 37.01950605 -23.7172783 38.83833674 -28 39 C-31.94023743 37.68658752 -33.5607341 36.84192631 -35.5 33.125 C-36.09153479 29.42790754 -35.7000199 28.29828546 -34 25 C-32.19365802 22.92186014 -30.3985768 21.00109961 -28.44140625 19.078125 C-27.89645004 18.53267029 -27.35149384 17.98721558 -26.7900238 17.42523193 C-25.64119659 16.27873717 -24.48869448 15.13591436 -23.33276367 13.99658203 C-21.56312071 12.2506124 -19.80725651 10.49161913 -18.05273438 8.73046875 C-16.93308284 7.6163918 -15.81266595 6.5030834 -14.69140625 5.390625 C-14.16631973 4.86462708 -13.64123322 4.33862915 -13.10023499 3.79669189 C-8.71357503 -0.50529698 -6.02622631 -1.72177895 0 0 Z " fill="#EAC320" transform="translate(389,78)"/>
</svg>
